<svg xmlns="http://www.w3.org/2000/svg" version="1.1" xmlns:xlink="http://www.w3.org/1999/xlink" xmlns:svgjs="http://svgjs.dev/svgjs" width="1000" height="1000" viewBox="0 0 1000 1000"><rect width="1000" height="1000" fill="#000000"></rect><g transform="matrix(0.7,0,0,0.7,149.57575757575756,282.1265587044535)"><svg viewBox="0 0 396 247" data-background-color="#5e1914" preserveAspectRatio="xMidYMid meet" height="623" width="1000" xmlns="http://www.w3.org/2000/svg" xmlns:xlink="http://www.w3.org/1999/xlink"><g id="tight-bounds" transform="matrix(1,0,0,1,0.2400000000000091,-0.09999999999999432)"><svg viewBox="0 0 395.52 247.2" height="247.2" width="395.52"><g><svg></svg></g><g><svg viewBox="0 0 395.52 247.2" height="247.2" width="395.52"><g transform="matrix(1,0,0,1,103.04284799999998,47.215199999999996)"><svg viewBox="0 0 189.43430400000003 152.7696" height="152.7696" width="189.43430400000003"><g><svg viewBox="0 0 189.43430400000003 152.7696" height="152.7696" width="189.43430400000003"><g><svg viewBox="0 0 189.43430400000003 152.7696" height="152.7696" width="189.43430400000003"><g><svg viewBox="0 0 189.43430400000003 152.7696" height="152.7696" width="189.43430400000003"><g id="textblocktransform"><svg viewBox="0 0 189.43430400000003 152.7696" height="152.7696" width="189.43430400000003" id="textblock"><g><svg viewBox="0 0 189.43430400000003 152.7696" height="152.7696" width="189.43430400000003"><g transform="matrix(1,0,0,1,0,0)"><svg width="189.43430400000003" viewBox="0.15000000596046448 -39.29999923706055 51.14999771118164 41.25" height="152.7696" data-palette-color="#ed1703"><path d="M18.75-1.8L18.75-1.8Q14.1 1.95 8.45 1.95L8.45 1.95Q2 1.95 0.5-1.65L0.5-1.65Q0.15-2.5 0.15-3.63 0.15-4.75 1.3-6.05L1.3-6.05Q3.1-8.1 6.3-8.1L6.3-8.1Q8.45-8.1 10.63-7.33 12.8-6.55 18.35-3.6L18.35-3.6Q20.85-6 23.35-10 25.85-14 27.68-17.73 29.5-21.45 32.13-25.85 34.75-30.25 37.35-33.15L37.35-33.15Q31.75-36.5 25.45-36.5L25.45-36.5Q22.85-36.5 20.15-35.95L20.15-35.95Q12.4-34.3 8.35-29.2L8.35-29.2Q5.85-26.1 5.85-23.3L5.85-23.3Q5.85-19.5 9.5-18.35L9.5-18.35Q10.8-18 11.75-18 12.7-18 13.88-18.3 15.05-18.6 16.2-19.7L16.2-19.7Q18.4-21.9 18.55-23.8L18.55-23.8Q18.6-24.25 19.13-24.13 19.65-24 19.55-23.35L19.55-23.35Q19.05-19.7 15.7-17.8L15.7-17.8Q13.65-16.7 11.6-16.7L11.6-16.7 9-17.15Q5.2-18.45 4-22L4-22Q3.5-23.35 3.5-24.7L3.5-24.7Q3.5-27.45 5.55-30.15L5.55-30.15Q9.95-36.05 21.15-37.7L21.15-37.7Q23.35-38 25.5-38L25.5-38Q32.45-38 38.75-34.7L38.75-34.7Q40.7-36.95 42.35-38.13 44-39.3 45-39.3L45-39.3Q45.55-39.3 45.65-39.08 45.75-38.85 45.63-38.73 45.5-38.6 45.3-38.6L45.3-38.6Q44.45-38.6 43.1-36.8 41.75-35 40.9-33.45L40.9-33.45Q46.25-29.9 49.05-24.35L49.05-24.35Q51.3-19.9 51.3-14.65L51.3-14.65Q51.3-8.15 48.2-4.3L48.2-4.3Q45.65-1.15 42 0.15L42 0.15Q37.65 1.7 33.4 1.7L33.4 1.7Q24.8 1.7 18.75-1.8ZM19.95-2.7L19.95-2.7Q25 0.3 31.8 0.3L31.8 0.3Q39.7 0.3 44.4-4.2L44.4-4.2Q48.15-7.85 48.15-14.3L48.15-14.3Q48.15-18.9 46.35-22.95L46.35-22.95Q44.1-28.1 39.7-31.55L39.7-31.55Q38.25-29.3 34.13-22.48 30-15.65 27.15-11.4 24.3-7.15 22.65-5.38 21-3.6 19.95-2.7ZM17.05-2.6L17.05-2.6Q11.2-5.4 9.65-5.95 8.1-6.5 6.63-6.5 5.15-6.5 4.28-5.4 3.4-4.3 3.4-3.43 3.4-2.55 3.8-1.75L3.8-1.75Q4.85 0.4 8.1 0.4L8.1 0.4Q12.9 0.4 17.05-2.6Z" opacity="1" transform="matrix(1,0,0,1,0,0)" fill="#ffffff" class="wordmark-text-0" data-fill-palette-color="primary" id="text-0"></path></svg></g></svg></g></svg></g></svg></g></svg></g></svg></g></svg></g><path d="M110.176 41.215L110.176 0 357.376 0 357.376 247.2 110.176 247.2 110.176 205.985 123.953 205.985 123.953 233.423 343.599 233.423 343.599 13.777 123.953 13.777 123.953 41.215Z" fill="#ffffff" stroke="transparent" data-fill-palette-color="primary"></path></svg></g><defs></defs></svg><rect width="395.52" height="247.2" fill="none" stroke="none" visibility="hidden"></rect></g></svg></g></svg>